<svg xmlns="http://www.w3.org/2000/svg" xmlns:xlink="http://www.w3.org/1999/xlink" viewBox="0 0 1051.44 1036.66"><defs><style>.cls-1{isolation:isolate;}.cls-2{fill:#253b53;}.cls-3{fill:#41bbc7;}.cls-4,.cls-5{opacity:0.74;mix-blend-mode:overlay;}.cls-4{fill:url(#Degradado_sin_nombre_267);}.cls-5{fill:url(#Degradado_sin_nombre_267-2);}</style><linearGradient id="Degradado_sin_nombre_267" x1="1453.22" y1="153.11" x2="509.71" y2="772.72" gradientUnits="userSpaceOnUse"><stop offset="0.01" stop-color="#fff" stop-opacity="0"/><stop offset="1" stop-color="#010101" stop-opacity="0.8"/></linearGradient><linearGradient id="Degradado_sin_nombre_267-2" x1="403.32" y1="993.2" x2="417.59" y2="513.14" xlink:href="#Degradado_sin_nombre_267"/></defs><g class="cls-1"><g id="Capa_1" data-name="Capa 1"><path class="cls-2" d="M993.68,403.39c0,79.66-29.82,152.08-77.9,204.6s-114.36,85.12-187.27,85.12H554.69v456.34H275.62V113.62H728.51C874.33,113.62,993.68,244,993.68,403.39Z" transform="translate(-131.38 -112.79)"/><path class="cls-3" d="M1182.82,1148.93v.52H919c-86,0-165.13-50.42-207.58-131.61L554.69,692.66,343,253.18c-.82-1.66-1.64-3.33-2.47-4.94a254,254,0,0,0-64.86-81.64c-40.8-33.8-91.23-53-144.24-53v-.83h279v.83c53,0,103.44,19.18,144.29,53a254.3,254.3,0,0,1,62,76.39l369.48,766.89c1.47,3,3,6,4.58,9C1030.84,1094.74,1103,1143.48,1182.82,1148.93Z" transform="translate(-131.38 -112.79)"/><path class="cls-4" d="M1182.82,1148.93v.52H1055.44c-86,0-165.14-50.42-207.58-131.61,0,0-370.07-768-370.89-769.6-42-82.93-122-134.62-209.1-134.62v-.83H410.4v.83c85.18,0,163.61,49.51,206.34,129.37,0,0,372.48,772.92,374.06,775.87C1030.84,1094.74,1103,1143.48,1182.82,1148.93Z" transform="translate(-131.38 -112.79)"/><path class="cls-5" d="M554.69,692.66V1023.8L275.62,166.6a254,254,0,0,1,64.86,81.64c.83,1.61,1.65,3.28,2.47,4.94Z" transform="translate(-131.38 -112.79)"/></g></g></svg>